# xmcd
#
# Track frame offsets:
#	150
#	16106
#	29332
#	50268
#	67780
#	83832
#	102223
#	119731
#	135847
#	155149
#	170045
#
# Disc length: 2497 seconds
#
# Revision: 1
# Processed by: cddbd v1.5.2PL0 Copyright (c) Steve Scherf et al.
# Submitted via: audiograbber 1.83.01
#
DISCID=8609bf0b
DTITLE=ROBERTO CARLOS - AMIGO
DYEAR=1900
DGENRE=
TTITLE0=AMIGO
TTITLE1=SOLAMENTE UNA VEZ
TTITLE2=MUY ROMANTICO
TTITLE3=HABLANDO EN SERIO
TTITLE4=TERNURA
TTITLE5=CABALGATA
TTITLE6=NO TE OLVIDES DE MI
TTITLE7=SIENTO MUCHO AMIGA MÍA
TTITLE8=HACERTE MI MUJER
TTITLE9=OTRA VEZ
TTITLE10=AQUELLAS TARDES DE DOMINGO
EXTD=
EXTT0=
EXTT1=
EXTT2=
EXTT3=
EXTT4=
EXTT5=
EXTT6=
EXTT7=
EXTT8=
EXTT9=
EXTT10=
PLAYORDER=
